<svg width="16" height="16" viewBox="0 0 16 16" fill="none" xmlns="http://www.w3.org/2000/svg">
<path d="M15.082 6.17333L14 5.13067V2.33333C14 1.04667 12.9533 0 11.6667 0H4.33333C3.04667 0 2 1.04667 2 2.33333V5.13067L0.918 6.17333C0.334667 6.736 0 7.52267 0 8.33333V13C0 14.654 1.346 16 3 16H13C14.654 16 16 14.654 16 13V8.33333C16 7.52267 15.6653 6.736 15.082 6.17333ZM14.62 6.654C14.6813 6.71333 14.73 6.78333 14.7847 6.84867L14 7.63333V6.05667L14.62 6.654ZM2.66667 2.33333C2.66667 1.414 3.414 0.666667 4.33333 0.666667H11.6667C12.586 0.666667 13.3333 1.414 13.3333 2.33333V8.29933L9.65 11.9827C8.76867 12.864 7.232 12.864 6.35067 11.9827L2.66733 8.29933L2.66667 2.33333ZM2 6.05667V7.63333L1.21533 6.84867C1.26933 6.78333 1.318 6.71333 1.38 6.654L2 6.05667ZM15.3333 13C15.3333 14.2867 14.2867 15.3333 13 15.3333H3C1.71333 15.3333 0.666667 14.2867 0.666667 13V8.33333C0.666667 8.02067 0.731333 7.712 0.851333 7.42733L5.87867 12.4547C6.44533 13.022 7.198 13.3333 8 13.3333C8.802 13.3333 9.55467 13.0213 10.1213 12.4547L15.1487 7.42733C15.2687 7.712 15.3333 8.02067 15.3333 8.33333V13ZM4.43933 5.442C4.30467 5.31667 4.29667 5.106 4.42267 4.97067C4.54867 4.83667 4.75933 4.82867 4.894 4.954L6.41267 6.36533C6.81067 6.76333 7.44533 6.764 7.83533 6.374L10.9993 3.324C11.1313 3.198 11.3427 3.2 11.4707 3.33333C11.598 3.46533 11.5947 3.67667 11.4613 3.80467L8.302 6.85C7.98067 7.172 7.55533 7.33333 7.12933 7.33333C6.70333 7.33333 6.27533 7.17133 5.94933 6.846L4.43867 5.44333L4.43933 5.442Z" fill="url(#paint0_linear_61450_5066)"/>
<defs>
<linearGradient id="paint0_linear_61450_5066" x1="8" y1="0" x2="8" y2="16" gradientUnits="userSpaceOnUse">
<stop stop-color="#DB9D39"/>
<stop offset="0.5" stop-color="#FCD570"/>
<stop offset="0.75" stop-color="white"/>
<stop offset="1" stop-color="#FEF2B4"/>
</linearGradient>
</defs>
</svg>
